<svg width="200" height="200" viewBox="0 0 200 200" fill="none" xmlns="http://www.w3.org/2000/svg">
<rect width="200" height="200" fill="white"/>
<path fill-rule="evenodd" clip-rule="evenodd" d="M180 100C180 121.217 171.571 141.566 156.569 156.569C141.566 171.571 121.217 180 100 180C78.7827 180 58.4344 171.571 43.4315 156.569C28.4285 141.566 20 121.217 20 100C20 78.7827 28.4285 58.4344 43.4315 43.4315C58.4344 28.4285 78.7827 20 100 20C121.217 20 141.566 28.4285 156.569 43.4315C171.571 58.4344 180 78.7827 180 100V100ZM120 70C120 75.3043 117.893 80.3914 114.142 84.1421C110.391 87.8929 105.304 90 100 90C94.6957 90 89.6086 87.8929 85.8579 84.1421C82.1071 80.3914 80 75.3043 80 70C80 64.6957 82.1071 59.6086 85.8579 55.8579C89.6086 52.1071 94.6957 50 100 50C105.304 50 110.391 52.1071 114.142 55.8579C117.893 59.6086 120 64.6957 120 70V70ZM100 110C90.426 109.998 81.0528 112.745 72.9942 117.914C64.9355 123.083 58.5304 130.457 54.54 139.16C60.1668 145.706 67.1427 150.958 74.9894 154.555C82.8362 158.152 91.3681 160.009 100 160C108.632 160.009 117.164 158.152 125.011 154.555C132.857 150.958 139.833 145.706 145.46 139.16C141.47 130.457 135.064 123.083 127.006 117.914C118.947 112.745 109.574 109.998 100 110V110Z" fill="#3F3F46"/>
</svg>
